<svg width="52" height="52" viewBox="0 0 52 52" fill="none" xmlns="http://www.w3.org/2000/svg">
<rect width="52" height="52" rx="10" fill="white"/>
<path d="M31 9H19.5132L11 17.062H13.2482L13.2423 20.9662L13.2422 21.0223C13.2422 21.0223 12.3617 21.0618 12.3534 22.0034C12.3533 22.0079 12.3519 22.0109 12.3519 22.0154C12.3519 22.1977 12.3525 22.5293 12.3534 22.9454V24.0921C12.3534 24.1013 12.3558 24.1099 12.3561 24.1191C12.3606 25.8701 12.3669 28 12.3669 28L13.539 26.4619L14.735 28L14.7293 24.1984L14.726 21.9711C14.7246 21.9411 14.7215 21.9019 14.7147 21.8565C14.6998 21.7574 14.6752 21.6839 14.6667 21.6596C14.5863 21.4296 14.4363 21.285 14.3873 21.2431C14.3545 21.215 14.3192 21.1902 14.3192 21.1902C14.3192 21.1902 14.2621 21.1501 14.1968 21.1179C14.0606 21.0507 13.8747 21.0238 13.8537 21.0209L13.8537 20.9662L13.8515 17.0606L15.2611 17.0561L16.6193 20.9757C16.8147 20.4178 17.0656 19.8784 17.3744 19.3581C18.2155 17.9403 19.3579 16.8236 20.8003 16.0068C22.2428 15.1904 23.8379 14.7821 25.5867 14.7821C26.7983 14.7821 27.9359 14.9878 29.0025 15.39C29.1152 15.4141 29.1774 15.4296 29.1774 15.4296L28.0106 11.5466L31 9Z" fill="#002AA1"/>
<path d="M31.2516 16L29.7604 17.7767C28.6181 17.2006 27.3691 16.9087 26.0112 16.9087C24.5325 16.9087 23.1837 17.2416 21.964 17.9072C20.7445 18.5732 19.7785 19.4837 19.0672 20.64C18.3556 21.7962 18 23.0665 18 24.4501C18 25.5585 18.2322 26.5925 18.6886 27.5548C18.802 27.7941 18.9256 28.03 19.0672 28.2602C19.5977 29.1225 20.2703 29.8506 21.0837 30.445C21.3609 30.6475 21.654 30.8348 21.964 31.0062C23.1722 31.674 24.5073 32.0103 25.9696 32.0166V32.0186C25.9743 32.0186 25.9787 32.0178 25.9834 32.0178C26.815 32.0178 27.5727 32.2108 28.2566 32.5958C28.9401 32.9813 29.4853 33.5113 29.892 34.1855C30.2982 34.8601 30.5019 35.609 30.5019 36.4323C30.5019 37.2558 30.303 38.0088 29.9058 38.692C29.5082 39.3753 28.9634 39.9097 28.2704 40.295C27.5775 40.6805 26.8243 40.873 26.0112 40.873C25.997 40.873 25.9837 40.8707 25.9696 40.8705V43.9988C25.9836 43.9989 25.9971 44 26.0112 44C27.4708 44 28.8063 43.6625 30.0167 42.9883C31.2268 42.3141 32.1832 41.3985 32.8858 40.2424C33.588 39.0862 33.9391 37.8163 33.9391 36.4323C33.9391 35.0487 33.588 33.7784 32.8858 32.6221C32.3617 31.7598 31.6962 31.0345 30.8899 30.445C31.6962 29.8506 32.3617 29.1225 32.8858 28.2602C33.588 27.104 33.9391 25.8341 33.9391 24.4501C33.9391 23.0665 33.588 21.7962 32.8858 20.64C32.741 20.4018 32.5828 20.1767 32.4166 19.9594L34 18.0728L31.2516 16ZM29.9058 26.7098C29.5082 27.3931 28.9634 27.9275 28.2704 28.3128C27.5775 28.6983 26.8243 28.8908 26.0112 28.8908C25.997 28.8908 25.9837 28.8885 25.9696 28.8884C25.1543 28.8819 24.4006 28.6917 23.7105 28.3128C23.3313 28.1048 23.0004 27.8497 22.7102 27.5548C22.4627 27.3035 22.2438 27.0243 22.061 26.7098C21.6634 26.0267 21.4651 25.2736 21.4651 24.4501C21.4651 23.6268 21.6634 22.8779 22.061 22.2034C22.4582 21.5292 23.0035 20.9991 23.6967 20.6137C24.3896 20.2286 25.1519 20.0357 25.9834 20.0357C26.815 20.0357 27.5727 20.2286 28.2566 20.6137C28.9401 20.9991 29.4853 21.5292 29.892 22.2034C30.2982 22.8779 30.5019 23.6268 30.5019 24.4501C30.5019 25.2736 30.303 26.0267 29.9058 26.7098Z" fill="black"/>
</svg>
